<svg width="512" height="512" viewBox="0 0 512 512" fill="none" xmlns="http://www.w3.org/2000/svg">
  <g stroke="#F6FAFF" stroke-opacity="0.82" stroke-width="2">
    <circle cx="256" cy="256" r="246"/>

    <ellipse cx="256" cy="256" rx="246" ry="198"/>
    <ellipse cx="256" cy="256" rx="246" ry="150"/>
    <ellipse cx="256" cy="256" rx="246" ry="102"/>
    <ellipse cx="256" cy="256" rx="246" ry="56"/>

    <ellipse cx="256" cy="256" rx="214" ry="246"/>
    <ellipse cx="256" cy="256" rx="168" ry="246"/>
    <ellipse cx="256" cy="256" rx="122" ry="246"/>
    <ellipse cx="256" cy="256" rx="76" ry="246"/>

    <ellipse cx="256" cy="256" rx="214" ry="246" transform="rotate(32 256 256)"/>
    <ellipse cx="256" cy="256" rx="168" ry="246" transform="rotate(32 256 256)"/>
    <ellipse cx="256" cy="256" rx="122" ry="246" transform="rotate(32 256 256)"/>
    <ellipse cx="256" cy="256" rx="76" ry="246" transform="rotate(32 256 256)"/>
  </g>
</svg>
